<?xml version="1.0" encoding="UTF-8" standalone="no"?>
<!-- Created with Inkscape (http://www.inkscape.org/) -->
<svg
   xmlns:dc="http://purl.org/dc/elements/1.1/"
   xmlns:cc="http://web.resource.org/cc/"
   xmlns:rdf="http://www.w3.org/1999/02/22-rdf-syntax-ns#"
   xmlns:svg="http://www.w3.org/2000/svg"
   xmlns="http://www.w3.org/2000/svg"
   xmlns:xlink="http://www.w3.org/1999/xlink"
   xmlns:sodipodi="http://sodipodi.sourceforge.net/DTD/sodipodi-0.dtd"
   xmlns:inkscape="http://www.inkscape.org/namespaces/inkscape"
   version="1.0"
   width="350"
   height="350"
   id="svg2047"
   sodipodi:version="0.32"
   inkscape:version="0.45.1"
   sodipodi:docname="Wiktprintable_without_text.svg"
   inkscape:output_extension="org.inkscape.output.svg.inkscape"
   sodipodi:docbase="C:\Documents and Settings\Flanker\Desktop">
  <metadata
     id="metadata106">
    <rdf:RDF>
      <cc:Work
         rdf:about="">
        <dc:format>image/svg+xml</dc:format>
        <dc:type
           rdf:resource="http://purl.org/dc/dcmitype/StillImage" />
      </cc:Work>
    </rdf:RDF>
  </metadata>
  <sodipodi:namedview
     inkscape:window-height="573"
     inkscape:window-width="791"
     inkscape:pageshadow="2"
     inkscape:pageopacity="0.0"
     guidetolerance="10.0"
     gridtolerance="10.0"
     objecttolerance="10.0"
     borderopacity="1.0"
     bordercolor="#666666"
     pagecolor="#ffffff"
     id="base"
     width="350px"
     height="350px"
     inkscape:showpageshadow="false"
     inkscape:zoom="0.76165502"
     inkscape:cx="258.93767"
     inkscape:cy="194.03515"
     inkscape:window-x="306"
     inkscape:window-y="180"
     inkscape:current-layer="svg2047" />
  <defs
     id="defs3">
    <linearGradient
       id="linearGradient3446">
      <stop
         style="stop-color:#f4e3ca;stop-opacity:1"
         offset="0"
         id="stop3448" />
      <stop
         style="stop-color:#e9cc9d;stop-opacity:1"
         offset="1"
         id="stop3450" />
    </linearGradient>
    <linearGradient
       id="linearGradient2917">
      <stop
         style="stop-color:#0036d4;stop-opacity:1;"
         offset="0"
         id="stop2919" />
      <stop
         style="stop-color:#010057;stop-opacity:1;"
         offset="1"
         id="stop2921" />
    </linearGradient>
    <linearGradient
       inkscape:collect="always"
       xlink:href="#linearGradient2917"
       id="linearGradient2335"
       gradientUnits="userSpaceOnUse"
       gradientTransform="matrix(2.0490606,-0.5064396,0.5798578,2.0796157,-647.12897,-304.35318)"
       x1="370.37161"
       y1="344.23257"
       x2="283.22876"
       y2="259.17615" />
    <linearGradient
       inkscape:collect="always"
       xlink:href="#linearGradient3446"
       id="linearGradient2362"
       gradientUnits="userSpaceOnUse"
       gradientTransform="matrix(3.0529998,6.2279176e-8,4.5126126e-8,3.0530007,-2383.4084,666.99616)"
       x1="870.85938"
       y1="-140.09358"
       x2="795.29053"
       y2="-169.7764" />
    <linearGradient
       inkscape:collect="always"
       xlink:href="#linearGradient3446"
       id="linearGradient3359"
       gradientUnits="userSpaceOnUse"
       gradientTransform="matrix(3.0529998,6.2279176e-8,4.5126126e-8,3.0530007,-2383.4084,666.99616)"
       x1="870.85938"
       y1="-140.09358"
       x2="795.29053"
       y2="-169.7764" />
    <linearGradient
       inkscape:collect="always"
       xlink:href="#linearGradient2917"
       id="linearGradient3361"
       gradientUnits="userSpaceOnUse"
       gradientTransform="matrix(2.0490606,-0.5064396,0.5798578,2.0796157,-647.12897,-304.35318)"
       x1="370.37161"
       y1="344.23257"
       x2="283.22876"
       y2="259.17615" />
  </defs>
  <g
     id="g3354"
     transform="matrix(1.0365493,0,0,1.0365493,-17.701257,-6.5981711)">
    <rect
       id="rect3418"
       style="fill:#e7c78d;fill-opacity:1;fill-rule:nonzero;stroke:#000000;stroke-width:3.30574679;stroke-linecap:round;stroke-linejoin:round;stroke-miterlimit:4;stroke-dasharray:none;stroke-dashoffset:0;stroke-opacity:1"
       transform="matrix(0.9870852,-0.1601962,0.1691987,0.985582,0,0)"
       y="75.558617"
       x="13.211552"
       ry="37.487125"
       rx="27.963432"
       height="273.33887"
       width="274.39041" />
    <rect
       id="rect3436"
       style="fill:url(#linearGradient3359);fill-opacity:1;fill-rule:nonzero;stroke:#000000;stroke-width:3.30574346;stroke-linecap:round;stroke-linejoin:round;stroke-miterlimit:4;stroke-dasharray:none;stroke-dashoffset:0;stroke-opacity:1"
       transform="matrix(0.9870852,-0.1601962,0.1691987,0.985582,0,0)"
       y="56.547047"
       x="19.577763"
       ry="37.487095"
       rx="27.963409"
       height="273.33868"
       width="274.3902" />
    <path
       id="flowRoot3695"
       style="font-size:8.35136795px;font-style:normal;font-variant:normal;font-weight:normal;font-stretch:normal;text-align:start;line-height:125%;writing-mode:lr-tb;text-anchor:start;fill:url(#linearGradient3361);fill-opacity:1;stroke:#000000;stroke-width:2.48703504;stroke-miterlimit:4;stroke-opacity:1;font-family:Times New Roman"
       d="M 294.39268,64.778124 L 295.12213,69.709024 C 290.64497,70.35919 287.13778,71.730873 284.59999,73.823675 C 282.06191,75.916535 279.86775,79.456948 278.01721,84.44475 C 276.78755,87.800097 275.22424,95.604687 273.32704,107.85973 L 246.97917,260.47598 L 241.91104,261.21212 L 185.66651,151.35589 L 163.85961,272.54757 L 159.29819,273.21 L 86.03758,130.56763 C 80.580544,119.92549 77.193958,113.65624 75.878049,111.75957 C 73.689239,108.62903 71.016215,106.45376 67.858799,105.23311 C 64.701384,104.01279 60.630484,103.7645 55.646863,104.4882 L 54.917433,99.557371 L 118.52403,90.319663 L 119.25341,95.250593 L 116.21275,95.692213 C 111.73556,96.342449 108.47224,97.905702 106.42241,100.38123 C 104.37268,102.85721 103.57114,105.60518 104.01827,108.62585 C 104.47796,111.73545 107.39439,118.61777 112.76726,129.27219 L 161.60029,225.77498 L 177.35404,135.41088 L 170.03849,120.95464 L 164.18994,109.41621 C 161.75886,105.23152 159.19541,101.61087 156.49973,98.553545 C 155.15197,97.02509 153.59005,95.799783 151.81433,94.877924 C 149.46611,93.5855 147.18333,92.737347 144.96645,92.332831 C 143.28275,92.03317 140.70904,92.13456 137.24579,92.637599 L 136.51633,87.70667 L 203.41747,77.990531 L 204.1469,82.921399 L 199.58553,83.583868 C 194.85507,84.270889 191.54952,85.840248 189.66875,88.291291 C 187.78771,90.742731 187.11678,93.789598 187.65584,97.431848 C 188.32576,101.96308 191.39616,109.59417 196.86671,120.32546 L 244.33955,213.75864 L 262.30361,109.46067 C 264.39046,97.904178 265.1183,89.993821 264.48773,85.72888 C 264.18521,83.685779 263.29019,81.864574 261.80272,80.265533 C 260.3151,78.666557 258.58927,77.646611 256.62601,77.205665 C 253.23195,76.428036 248.95852,76.41341 243.80613,77.16167 L 243.0767,72.230801 L 294.39268,64.778124 z " />
  </g>
</svg>
